<?xml version="1.0" encoding="UTF-8"?>
<!DOCTYPE svg PUBLIC "-//W3C//DTD SVG 1.1//EN" "http://www.w3.org/Graphics/SVG/1.1/DTD/svg11.dtd">
<!-- Creator: CorelDRAW 2021.5 -->
<svg xmlns="http://www.w3.org/2000/svg" xml:space="preserve" width="102.381mm" height="30.9043mm" version="1.1" style="shape-rendering:geometricPrecision; text-rendering:geometricPrecision; image-rendering:optimizeQuality; fill-rule:evenodd; clip-rule:evenodd"
viewBox="0 0 1046.54 315.9"
 xmlns:xlink="http://www.w3.org/1999/xlink"
 xmlns:xodm="http://www.corel.com/coreldraw/odm/2003">
 <defs>
  <style type="text/css">
   <![CDATA[
    .fil6 {fill:black}
    .fil3 {fill:#A9ABAE;fill-rule:nonzero}
    .fil5 {fill:black;fill-rule:nonzero}
    .fil4 {fill:url(#id0);fill-rule:nonzero}
    .fil1 {fill:url(#id1);fill-rule:nonzero}
    .fil2 {fill:url(#id2);fill-rule:nonzero}
    .fil0 {fill:url(#id3);fill-rule:nonzero}
   ]]>
  </style>
  <linearGradient id="id0" gradientUnits="userSpaceOnUse" x1="697.33" y1="250" x2="664.28" y2="19.51">
   <stop offset="0" style="stop-opacity:1; stop-color:#1C4520"/>
   <stop offset="1" style="stop-opacity:1; stop-color:#186600"/>
  </linearGradient>
  <linearGradient id="id1" gradientUnits="userSpaceOnUse" xlink:href="#id0" x1="142.66" y1="82.07" x2="317.39" y2="82.07">
  </linearGradient>
  <linearGradient id="id2" gradientUnits="userSpaceOnUse" xlink:href="#id0" x1="142.66" y1="223.9" x2="317.39" y2="223.9">
  </linearGradient>
  <linearGradient id="id3" gradientUnits="userSpaceOnUse" xlink:href="#id0" x1="142.66" y1="152.98" x2="317.39" y2="152.98">
  </linearGradient>
 </defs>
 <g id="Camada_x0020_1">
  <metadata id="CorelCorpID_0Corel-Layer"/>
  <g id="_2672013942656">
   <polygon class="fil0" points="177.8,92.49 230.02,145.34 282.24,92.49 317.39,125.05 230.02,213.47 142.66,125.05 "/>
   <polygon class="fil1" points="177.8,21.58 230.02,74.42 282.24,21.58 317.39,54.14 230.02,142.55 142.66,54.14 "/>
   <polygon class="fil2" points="177.8,163.41 230.02,216.26 282.24,163.41 317.39,195.97 230.02,284.38 142.66,195.97 "/>
   <polygon class="fil3" points="35.15,192.91 87.37,140.06 139.59,192.91 174.74,160.35 87.37,71.94 -0,160.35 "/>
   <polygon class="fil3" points="36.17,266.89 88.39,214.05 140.61,266.89 175.76,234.33 88.39,145.92 1.02,234.33 "/>
   <polygon class="fil3" points="35.15,120.97 87.37,68.12 139.59,120.97 174.74,88.41 87.37,0 -0,88.41 "/>
   <path class="fil4" d="M429.03 66.98l62.24 0c46.52,0 64.12,25.14 64.12,65.62 0,46.3 -18.23,69.91 -58.46,69.91l-67.9 0 0 -135.54zm-60.98 177.24l145.22 0c70.41,0 104.99,-43.54 104.99,-109.47 0,-65.93 -33.32,-109.47 -110.33,-109.47l-139.88 0 0 218.94zm333.82 0l62.87 0 47.15 -155.78 0.63 0 47.15 155.78 62.87 0 71.04 -218.94 -60.98 0 -43.38 159.46 -0.63 0 -45.89 -159.46 -60.98 0 -45.89 159.46 -0.63 0 -43.38 -159.46 -60.98 0 71.04 218.94z"/>
   <path class="fil5" d="M479.24 308.61l1.05 6.54 -26.83 0 0 -36.48 25.79 0 1.05 6.6 -18.26 0 0 8.21 11.88 0 1.05 6.6 -12.92 0 0 8.53 17.21 0zm27.44 0l16.22 0 0.99 6.54 -25.79 0 0 -36.48 8.58 0 0 29.93zm60.27 0l1.05 6.54 -26.83 0 0 -36.48 25.79 0 1.05 6.6 -18.26 0 0 8.21 11.88 0 1.05 6.6 -12.92 0 0 8.53 17.21 0zm14.9 -29.5l8.52 -0.97 9.9 26.39 9.62 -25.86 8.52 0 -14.24 36.48 -8.08 0 -14.24 -36.05zm49.87 36.05l14.3 -36.48 8.08 0 14.19 36.05 -8.47 0.97 -3.03 -8.42 -13.58 0 -2.92 7.89 -8.58 0zm13.91 -14.54l8.63 0 -4.4 -11.32 -4.23 11.32zm72.97 -3.92c0,3.75 -0.71,7.02 -2.14,9.79 -1.43,2.77 -3.46,4.91 -6.1,6.41 -2.64,1.5 -5.74,2.25 -9.29,2.25l-15.51 0 0 -36.48 15.62 0c3.74,0 6.92,0.77 9.54,2.31 2.62,1.54 4.59,3.66 5.91,6.36 1.32,2.7 1.98,5.82 1.98,9.36zm-8.91 0c0,-3.47 -0.73,-6.2 -2.2,-8.21 -1.47,-2 -3.61,-3 -6.43,-3l-6.93 0 0 22.91 6.54 0c2.79,0 4.99,-0.96 6.6,-2.9 1.61,-1.93 2.42,-4.86 2.42,-8.8zm24.63 0.38c0,-3.68 0.8,-6.97 2.39,-9.87 1.6,-2.9 3.82,-5.17 6.68,-6.81 2.86,-1.65 6.12,-2.49 9.79,-2.52 3.89,0 7.25,0.83 10.09,2.49 2.84,1.66 5.01,3.93 6.52,6.79 1.5,2.86 2.25,6.04 2.25,9.55 0,3.72 -0.8,7.03 -2.39,9.92 -1.6,2.9 -3.82,5.16 -6.68,6.79 -2.86,1.63 -6.12,2.46 -9.79,2.49 -3.85,0 -7.2,-0.83 -10.04,-2.49 -2.84,-1.66 -5.02,-3.93 -6.54,-6.79 -1.52,-2.86 -2.28,-6.04 -2.28,-9.55zm18.97 -12.18c-1.83,0 -3.51,0.5 -5.03,1.5 -1.52,1 -2.74,2.42 -3.66,4.27 -0.92,1.84 -1.38,3.96 -1.38,6.36 0,3.5 0.89,6.36 2.67,8.55 1.78,2.2 4.19,3.3 7.23,3.3 1.87,0 3.57,-0.46 5.09,-1.37 1.52,-0.91 2.72,-2.28 3.6,-4.1 0.88,-1.82 1.32,-4.06 1.32,-6.7 0,-2.25 -0.4,-4.27 -1.21,-6.06 -0.81,-1.79 -1.95,-3.19 -3.44,-4.21 -1.48,-1.02 -3.22,-1.53 -5.2,-1.53zm37.23 30.25l0 -36.48 13.8 0c4.4,0 8.01,0.99 10.83,2.98 2.82,1.98 4.23,4.94 4.23,8.88 0,2.14 -0.51,4.04 -1.54,5.69 -1.03,1.64 -2.42,2.95 -4.18,3.92l8.74 15.02 -9.62 0 -6.98 -12.66 -6.71 0 0 12.66 -8.58 0zm19.91 -24.46c0,-1.79 -0.55,-3.11 -1.65,-3.97 -1.1,-0.86 -2.68,-1.29 -4.73,-1.29l-4.95 0 0 10.41 5.06 0c1.87,0 3.38,-0.45 4.54,-1.37 1.16,-0.91 1.73,-2.17 1.73,-3.78zm55.04 17.92l1.04 6.54 -26.83 0 0 -36.48 25.79 0 1.04 6.6 -18.26 0 0 8.21 11.88 0 1.04 6.6 -12.92 0 0 8.53 17.21 0zm28.21 7.24c-1.72,0 -3.77,-0.3 -6.13,-0.91 -2.37,-0.61 -4.21,-1.3 -5.53,-2.09l2.47 -6.54c1.17,0.61 2.63,1.17 4.37,1.69 1.74,0.52 3.29,0.78 4.65,0.78 1.83,0 3.24,-0.31 4.23,-0.94 0.99,-0.63 1.48,-1.46 1.48,-2.49 0,-0.68 -0.38,-1.31 -1.13,-1.88 -0.75,-0.57 -1.97,-1.34 -3.66,-2.31 -0.36,-0.18 -0.92,-0.48 -1.65,-0.91 -2.49,-1.47 -4.44,-2.68 -5.86,-3.65 -1.41,-0.96 -2.66,-2.18 -3.74,-3.65 -1.08,-1.47 -1.62,-3.11 -1.62,-4.94 0.04,-1.93 0.6,-3.66 1.68,-5.18 1.08,-1.52 2.63,-2.72 4.65,-3.59 2.02,-0.88 4.38,-1.31 7.09,-1.31 1.83,0 3.72,0.26 5.66,0.78 1.94,0.52 3.65,1.21 5.11,2.06l-2.64 6.12c-1.76,-0.72 -3.21,-1.22 -4.34,-1.5 -1.14,-0.29 -2.36,-0.43 -3.68,-0.43 -1.36,0 -2.47,0.28 -3.33,0.83 -0.86,0.55 -1.29,1.31 -1.29,2.28 0,0.79 0.36,1.48 1.07,2.06 0.72,0.59 1.86,1.3 3.44,2.12 0.59,0.25 1.19,0.57 1.81,0.97 2.64,1.5 4.66,2.73 6.05,3.67 1.39,0.95 2.62,2.15 3.68,3.6 1.06,1.45 1.59,3.1 1.59,4.96 0,2 -0.58,3.79 -1.73,5.36 -1.16,1.57 -2.82,2.81 -5,3.7 -2.18,0.89 -4.76,1.34 -7.73,1.34z"/>
   <path class="fil6" d="M1021.24 27l4.66 0c1.33,0 2.23,0.24 2.72,0.71 0.48,0.47 0.74,1.42 0.75,2.84l0.03 2.07c0.01,0.66 0.08,1.3 0.2,1.92 0.06,0.3 0.17,0.7 0.31,1.19l5.27 0 0 -0.56c-0.46,-0.27 -0.76,-0.69 -0.88,-1.27 -0.08,-0.36 -0.13,-1.05 -0.13,-2.07l0 -1.5c0,-1.56 -0.22,-2.72 -0.66,-3.48 -0.44,-0.76 -1.18,-1.35 -2.24,-1.76 1.26,-0.42 2.16,-1.15 2.71,-2.17 0.55,-1.02 0.82,-2.06 0.82,-3.12 0,-0.88 -0.14,-1.66 -0.42,-2.34 -0.28,-0.68 -0.67,-1.31 -1.15,-1.87 -0.58,-0.69 -1.3,-1.2 -2.14,-1.56 -0.84,-0.35 -2.04,-0.54 -3.6,-0.57l-10.92 0 0 22.27 4.66 0 0 -8.73zm0 -9.67l5.27 0c0.98,0 1.72,0.13 2.21,0.39 0.87,0.46 1.31,1.37 1.31,2.72 0,1.25 -0.45,2.09 -1.35,2.51 -0.51,0.24 -1.27,0.36 -2.3,0.36l-5.13 0 0 -5.98z"/>
   <path class="fil6" d="M1025.88 44.79c11.39,0 20.66,-9.04 20.66,-20.15 0,-11.11 -9.27,-20.15 -20.66,-20.15 -11.39,0 -20.66,9.04 -20.66,20.15 0,11.11 9.27,20.15 20.66,20.15zm0 -37.42c9.76,0 17.7,7.74 17.7,17.26 0,9.52 -7.94,17.27 -17.7,17.27 -9.76,0 -17.7,-7.75 -17.7,-17.27 0,-9.52 7.94,-17.26 17.7,-17.26z"/>
  </g>
 </g>
</svg>
